<?xml version="1.0" encoding="UTF-8" standalone="no"?>
<!-- Created with Inkscape (http://www.inkscape.org/) -->

<svg
   version="1.1"
   id="svg1"
   width="5120"
   height="432"
   viewBox="0 0 5120 432"
   sodipodi:docname="yoshis-island-1-top-Platforms.svg"
   inkscape:version="1.3.2 (091e20e, 2023-11-25, custom)"
   xmlns:inkscape="http://www.inkscape.org/namespaces/inkscape"
   xmlns:sodipodi="http://sodipodi.sourceforge.net/DTD/sodipodi-0.dtd"
   xmlns:xlink="http://www.w3.org/1999/xlink"
   xmlns="http://www.w3.org/2000/svg"
   xmlns:svg="http://www.w3.org/2000/svg">
  <defs
     id="defs1" />
  <sodipodi:namedview
     id="namedview1"
     pagecolor="#505050"
     bordercolor="#eeeeee"
     borderopacity="1"
     inkscape:showpageshadow="0"
     inkscape:pageopacity="0"
     inkscape:pagecheckerboard="0"
     inkscape:deskcolor="#505050"
     inkscape:zoom="6.2709725"
     inkscape:cx="3481.9161"
     inkscape:cy="295.40873"
     inkscape:window-width="2560"
     inkscape:window-height="1351"
     inkscape:window-x="-9"
     inkscape:window-y="-9"
     inkscape:window-maximized="1"
     inkscape:current-layer="g1" />
  <g
     inkscape:groupmode="layer"
     inkscape:label="Image"
     id="g1">
    <image
       width="5120"
       height="432"
       preserveAspectRatio="none"
       xlink:href="yoshis-island-1-top.png"
       id="image1" />
    <path
       style="fill:#000000"
       d="m 175.98863,335.60194 47.56201,-47.654 -19.77917,31.0947 z"
       id="path4" />
    <path
       style="fill:#000000"
       d="m 1199.9368,335.85003 47.9059,-47.39716 -18.0601,29.42185 z"
       id="path5" />
    <path
       style="fill:#000000"
       d="m 1264.3766,335.68046 47.058,-47.05801 -14.6685,30.94806 z"
       id="path6" />
    <path
       style="fill:#000000"
       d="m 1328.4772,335.51088 46.9733,-47.31238 -18.6537,27.38691 z"
       id="path7" />
    <path
       style="fill:#000000"
       d="m 2832.2291,337.1796 61.4982,-0.6627 -27.4356,6.36188 z"
       id="path8" />
    <path
       style="fill:#000000"
       d="m 2786.1055,288.14011 75.0172,-0.26507 -42.28,10.33805 z"
       id="path9" />
    <path
       style="fill:#000000"
       d="m 2833.9521,256.86087 79.7886,-0.66269 95.0306,95.69327 29.8213,0.92777 v 3.97617 l -33.93,0.13254 -93.1751,-95.8258 z"
       id="path10" />
    <path
       style="fill:#000000"
       d="m 4304.8288,321.02123 141.3623,-0.67187 -72.2937,7.39061 z"
       id="path11" />
    <path
       style="fill:#000000"
       d="m 3375.7124,256.73849 239.8353,-0.31893 -0.1595,2.87037 -238.5595,-0.15947 z"
       id="path1" />
  </g>
</svg>
